<svg id="Layer_1" data-name="Layer 1" xmlns="http://www.w3.org/2000/svg" viewBox="0 0 1600 2196.26"><defs><style>.cls-1{fill:#80cce9;}.cls-2{fill:#57bbdf;}.cls-3{fill:#51a4ca;}.cls-4{fill:#0087ae;}.cls-5{fill:#00888c;}.cls-6{fill:#b9e0ee;}.cls-7{font-size:21px;font-family:OpenSans, Open Sans;}.cls-8{font-size:42px;fill:#da3138;font-family:OpenSans-Bold, Open Sans;font-weight:700;}.cls-9{fill:none;stroke:#303030;stroke-miterlimit:10;stroke-width:4px;}</style></defs><path class="cls-1" d="M988.24,80.74s-1.39,1803.75-1.39,1874.9-18.14,111.6-61.39,131.13-30.69,47.43-65.56,51.62-33.63-37.62-55.8-46c-37.81-14.37-69.75-43.25-73.94-132.53s0-1884.66,0-1884.66Z"/><path class="cls-2" d="M729.79,118.79c21.13,5.43,41.54,11.9,63.3,19.68,19.6,7,43.15,12.81,59.61,26.13,45.94,37.16,67.19,222.1,80.3,276.79,18.22,76,26.61,1392.2,27.4,1470.23.52,51.12,2.28,115.88-18.45,165.77,31.39-22,44.9-60.45,44.9-121.75,0-71.15,1.39-1874.9,1.39-1874.9L730.16,75.16S730,91.61,729.79,118.79Z"/><path class="cls-3" d="M989.64,96.09c29.48-2.53,33.48-41.85,12.55-46s-256.68-5.58-280.4-1.39-26.5,40.45,0,43.24S940.81,100.27,989.64,96.09Z"/><path class="cls-4" d="M797.53,46.25c45.3,4.68,99.23,19.18,131.34,51.34,26.22,0,48.24-.43,60.77-1.5,29.48-2.53,33.48-41.85,12.55-46C988.07,47.23,876.14,45.68,797.53,46.25Z"/><path class="cls-5" d="M745.3,47.15c-6,.2-11.08.43-15.11.69C735.12,47.77,740.25,47.5,745.3,47.15Z"/><path class="cls-6" d="M750.14,1924.57c2,25,4.71,50,9.23,74.62,2.32,12.7,5,24.52,10.8,36.18,5.45,11,14.84,23,27.39,25.66,11.35,2.42,21.27-7,18.53-18.53-2.17-9.14-6-15.44-8-25.45-2-10.34-4.11-20.7-5.79-31.1-3.34-20.62-4.25-44.28-6.53-66.79-1.26-12.44-12-35-28.06-30.54-7.59,2.09-11.82,9-14.13,16-1.25,3.76-.55,2.49-1.91,5.7C749.68,1915,749.72,1919.56,750.14,1924.57Z"/><path class="cls-6" d="M743.64,1831.75c.49,4.82.78,9.86,1.93,14.56.77,3.14,2.46,6.23,3.72,9.17a21.31,21.31,0,0,0,22,12.11c4.19-.57,8.57-2.29,11.5-5.51a34.53,34.53,0,0,0,3.89-5.12c2.24-3.69,2.57-7.45,3-11.57.15-1.54.4-3.13.41-4.67,0-3.12-.49-6.28-.61-9.4-.06-1.57-.09-3.14-.1-4.71a67.29,67.29,0,0,0-.89-10.43c-.21-1.36-.33-2.77-.61-4.11-1.52-7.43-8.9-14.12-16.17-16-11.25-2.9-24.7,4.81-27.1,16.4a72.38,72.38,0,0,0-1.43,9.83A60.93,60.93,0,0,0,743.64,1831.75Z"/><text class="cls-7" transform="translate(479.09 203)">We buy condoms</text><text class="cls-8" transform="translate(560.41 167.64)">10%</text><text class="cls-7" transform="translate(229.59 584.96)">ShitCom Episode 2. BickForACause Auction <tspan x="16.16" y="25.2">for our partner organization/Community. </tspan><tspan x="-9.35" y="50.4">Random merch airdrop for DigBick Holders.</tspan></text><text class="cls-8" transform="translate(560.41 536.32)">30%</text><text class="cls-7" transform="translate(224.44 949.56)">ShitCom Episode 4. BickForACause Auction, <tspan x="4.76" y="25.2">Public merchandise will be out for sale and </tspan><tspan x="155.43" y="50.4">will benefit our community.</tspan></text><text class="cls-8" transform="translate(560.41 903.98)">50%</text><text class="cls-7" transform="translate(224.44 1312.11)">ShitCom Episode 6. BickForACause Auction, <tspan x="80.53" y="25.2">DigBicks Cool kid club membership</tspan></text><text class="cls-8" transform="translate(560.41 1266.54)">70%</text><text class="cls-7" transform="translate(304.92 1698.41)">ShitCom Episode 8. BickForACause <tspan x="-4.56" y="25.2">Auction, DigBicks NFT Airdrop? NFT </tspan><tspan x="88.43" y="50.4">Game dev will commence</tspan></text><text class="cls-8" transform="translate(555.81 1639.81)">90%</text><text class="cls-7" transform="translate(1071.81 374.32)">We will release DigBicks <tspan x="0" y="25.2">ShitCom Episode 1 and </tspan><tspan x="0" y="50.4">create the Youtube channel </tspan><tspan x="0" y="75.6">for our community.</tspan></text><text class="cls-8" transform="translate(1071.81 331.05)">20%</text><text class="cls-7" transform="translate(1071.81 733.56)">ShitCom Episode 3. BickForACause <tspan x="0" y="25.2">Auction and we discuss with the </tspan><tspan x="0" y="50.4">community about the BickShot </tspan><tspan x="0" y="75.6">Game.</tspan></text><text class="cls-8" transform="translate(1071.81 692.58)">40%</text><text class="cls-7" transform="translate(1075.38 1111.94)">ShitCom Episode 5. BickForACause Auction, <tspan x="0" y="25.2">we will send DigBick to Vitalyk and we going </tspan><tspan x="0" y="50.4">to start minting ShitCom Episodes.</tspan></text><text class="cls-8" transform="translate(1075.38 1061.77)">60%</text><text class="cls-7" transform="translate(1077.43 1472.7)"><tspan xml:space="preserve"> ShitCom Episode 7. </tspan><tspan x="0" y="25.2">BickForACause Auction</tspan></text><text class="cls-8" transform="translate(1077.43 1429.43)">80%</text><text class="cls-7" transform="translate(1082.02 1847)">ShitCom Episode 9. BickForACause <tspan x="0" y="25.2">Auction, BickFest Concert for the </tspan><tspan x="0" y="50.4">Community!</tspan></text><text class="cls-8" transform="translate(1078.96 1797.6)">100</text><line class="cls-9" x1="666.11" y1="145.68" x2="765.68" y2="145.68"/><line class="cls-9" x1="666.11" y1="514.62" x2="765.68" y2="514.62"/><line class="cls-9" x1="666.11" y1="883.55" x2="765.68" y2="883.55"/><line class="cls-9" x1="666.11" y1="1252.49" x2="765.68" y2="1252.49"/><line class="cls-9" x1="666.11" y1="1621.43" x2="765.68" y2="1621.43"/><line class="cls-9" x1="951.04" y1="306.02" x2="1050.62" y2="306.02"/><line class="cls-9" x1="951.04" y1="674.96" x2="1050.62" y2="674.96"/><line class="cls-9" x1="951.04" y1="1043.89" x2="1050.62" y2="1043.89"/><line class="cls-9" x1="951.04" y1="1412.83" x2="1050.62" y2="1412.83"/><line class="cls-9" x1="951.04" y1="1781.77" x2="1050.62" y2="1781.77"/></svg>