<svg id="Layer_1" data-name="Layer 1" xmlns="http://www.w3.org/2000/svg" viewBox="0 0 1771.57 2196.26"><defs><style>.cls-1{fill:#80cce9;}.cls-2{fill:#57bbdf;}.cls-3{fill:#51a4ca;}.cls-4{fill:#0087ae;}.cls-5{fill:#00888c;}.cls-6{fill:#b9e0ee;}.cls-7{font-size:21px;font-family:OpenSans, Open Sans;}.cls-8{font-size:42px;fill:#da3138;font-family:OpenSans-Bold, Open Sans;font-weight:700;}.cls-9{fill:none;stroke:#303030;stroke-width:4px;}.cls-11,.cls-9{stroke-miterlimit:10;}.cls-10{opacity:0.35;}.cls-11{fill:#b2b2b2;stroke:#fff;stroke-width:2px;}</style></defs><path class="cls-1" d="M1014.89,80.74s-1.39,1803.75-1.39,1874.9-18.14,111.6-61.38,131.13-30.69,47.43-65.57,51.62-33.63-37.62-55.8-46C792.94,2078,761,2049.1,756.81,1959.82s0-1884.66,0-1884.66Z"/><path class="cls-2" d="M756.44,118.79c21.13,5.43,41.54,11.9,63.3,19.68,19.6,7,43.15,12.81,59.62,26.13,45.93,37.16,67.18,222.1,80.29,276.79,18.22,76,26.61,1392.2,27.4,1470.23.52,51.12,2.28,115.88-18.45,165.77,31.39-22,44.9-60.45,44.9-121.75,0-71.15,1.39-1874.9,1.39-1874.9L756.81,75.16S756.66,91.61,756.44,118.79Z"/><path class="cls-3" d="M1016.29,96.09c29.48-2.53,33.48-41.85,12.55-46s-256.68-5.58-280.4-1.39-26.5,40.45,0,43.24S967.46,100.27,1016.29,96.09Z"/><path class="cls-4" d="M824.18,46.25c45.3,4.68,99.23,19.18,131.35,51.34,26.21,0,48.23-.43,60.76-1.5,29.48-2.53,33.48-41.85,12.55-46C1014.72,47.23,902.79,45.68,824.18,46.25Z"/><path class="cls-5" d="M772,47.15c-6,.2-11.08.43-15.1.69C761.77,47.77,766.9,47.5,772,47.15Z"/><path class="cls-6" d="M776.79,1924.57c2.05,25,4.71,50,9.23,74.62,2.33,12.7,5,24.52,10.8,36.18,5.46,11,14.84,23,27.39,25.66,11.35,2.42,21.27-7,18.53-18.53-2.17-9.14-6-15.44-8-25.45-2-10.34-4.11-20.7-5.79-31.1-3.34-20.62-4.25-44.28-6.53-66.79-1.25-12.44-12-35-28.06-30.54-7.59,2.09-11.82,9-14.13,16-1.25,3.76-.55,2.49-1.9,5.7C776.33,1915,776.38,1919.56,776.79,1924.57Z"/><path class="cls-6" d="M770.29,1831.75c.49,4.82.78,9.86,1.93,14.56.77,3.14,2.46,6.23,3.73,9.17a21.29,21.29,0,0,0,22,12.11c4.18-.57,8.56-2.29,11.49-5.51a34.6,34.6,0,0,0,3.9-5.12c2.23-3.69,2.57-7.45,3-11.57.15-1.54.41-3.13.41-4.67,0-3.12-.49-6.28-.61-9.4-.06-1.57-.09-3.14-.1-4.71a67.29,67.29,0,0,0-.89-10.43c-.21-1.36-.33-2.77-.61-4.11-1.52-7.43-8.9-14.12-16.17-16-11.25-2.9-24.7,4.81-27.1,16.4a72.38,72.38,0,0,0-1.43,9.83A62.19,62.19,0,0,0,770.29,1831.75Z"/><text class="cls-7" transform="translate(388.68 203)">We buy condoms</text><text class="cls-8" transform="translate(470 167.64)">10%</text><text class="cls-7" transform="translate(139.18 584.96)">ShitCom Episode 2. BickForACause Auction <tspan x="16.16" y="25.2">for our partner organization/Community. </tspan><tspan x="-9.35" y="50.4">Random merch airdrop for DigBick Holders.</tspan></text><text class="cls-8" transform="translate(470 536.32)">30%</text><text class="cls-7" transform="translate(134.04 949.56)">ShitCom Episode 4. BickForACause Auction, <tspan x="4.76" y="25.2">Public merchandise will be out for sale and </tspan><tspan x="155.43" y="50.4">will benefit our community.</tspan></text><text class="cls-8" transform="translate(470 903.98)">50%</text><text class="cls-7" transform="translate(134.04 1312.11)">ShitCom Episode 6. BickForACause Auction, <tspan x="80.53" y="25.2">DigBicks Cool kid club membership</tspan></text><text class="cls-8" transform="translate(470 1266.54)">70%</text><text class="cls-7" transform="translate(214.52 1698.41)">ShitCom Episode 8. BickForACause <tspan x="-4.56" y="25.2">Auction, DigBicks NFT Airdrop? NFT </tspan><tspan x="88.43" y="50.4">Game dev will commence</tspan></text><text class="cls-8" transform="translate(465.41 1639.81)">90%</text><text class="cls-7" transform="translate(1257.49 374.32)">We will release DigBicks <tspan x="0" y="25.2">ShitCom Episode 1 and </tspan><tspan x="0" y="50.4">create the Youtube channel </tspan><tspan x="0" y="75.6">for our community.</tspan></text><text class="cls-8" transform="translate(1257.49 331.05)">20%</text><text class="cls-7" transform="translate(1257.49 733.56)">ShitCom Episode 3. BickForACause <tspan x="0" y="25.2">Auction and we discuss with the </tspan><tspan x="0" y="50.4">community about the BickShot </tspan><tspan x="0" y="75.6">Game.</tspan></text><text class="cls-8" transform="translate(1257.49 692.58)">40%</text><text class="cls-7" transform="translate(1261.06 1111.94)">ShitCom Episode 5. BickForACause Auction, <tspan x="0" y="25.2">we will send DigBick to Vitalyk and we going </tspan><tspan x="0" y="50.4">to start minting ShitCom Episodes.</tspan></text><text class="cls-8" transform="translate(1261.06 1061.77)">60%</text><text class="cls-7" transform="translate(1263.11 1472.7)"><tspan xml:space="preserve"> ShitCom Episode 7. </tspan><tspan x="0" y="25.2">BickForACause Auction</tspan></text><text class="cls-8" transform="translate(1263.11 1429.43)">80%</text><text class="cls-7" transform="translate(1267.7 1847)">ShitCom Episode 9. BickForACause <tspan x="0" y="25.2">Auction, BickFest Concert for the </tspan><tspan x="0" y="50.4">Community!</tspan></text><text class="cls-8" transform="translate(1264.64 1797.6)">100</text><line class="cls-9" x1="620.4" y1="145.68" x2="794.77" y2="145.68"/><line class="cls-9" x1="620.4" y1="514.62" x2="794.77" y2="514.62"/><line class="cls-9" x1="620.4" y1="883.55" x2="794.77" y2="883.55"/><line class="cls-9" x1="620.4" y1="1252.49" x2="794.77" y2="1252.49"/><line class="cls-9" x1="620.4" y1="1621.43" x2="794.77" y2="1621.43"/><line class="cls-9" x1="980.13" y1="306.02" x2="1196.4" y2="306.02"/><line class="cls-9" x1="980.13" y1="674.96" x2="1196.4" y2="674.96"/><line class="cls-9" x1="980.13" y1="1043.89" x2="1196.4" y2="1043.89"/><line class="cls-9" x1="980.13" y1="1412.83" x2="1196.4" y2="1412.83"/><line class="cls-9" x1="980.13" y1="1781.77" x2="1196.4" y2="1781.77"/><g class="cls-10"><path class="cls-11" d="M759.32,1943.13a12.79,12.79,0,1,0,0-18.09,12.59,12.59,0,0,0-2.14,2.85c.06,4.75.12,9,.19,12.71A12.31,12.31,0,0,0,759.32,1943.13Z"/><path class="cls-11" d="M845.22,2011a12.78,12.78,0,1,0-18.08,0A12.77,12.77,0,0,0,845.22,2011Z"/><path class="cls-11" d="M913.05,2060.69a12.79,12.79,0,1,0,0,18.08A12.78,12.78,0,0,0,913.05,2060.69Z"/><circle class="cls-11" cx="808.41" cy="1821.7" r="12.79"/><circle class="cls-11" cx="876.23" cy="1889.52" r="12.79"/><circle class="cls-11" cx="944.05" cy="1957.34" r="12.79"/><path class="cls-11" d="M1002.83,2016.12a12.79,12.79,0,0,0-1.15,16.75,135.23,135.23,0,0,0,6.5-19.95A12.71,12.71,0,0,0,1002.83,2016.12Z"/><circle class="cls-11" cx="785.15" cy="1646" r="12.79"/><path class="cls-11" d="M862,1722.87a12.79,12.79,0,1,0-18.09,0A12.8,12.8,0,0,0,862,1722.87Z"/><circle class="cls-11" cx="920.8" cy="1781.65" r="12.79"/><path class="cls-11" d="M997.66,1858.51a12.78,12.78,0,1,0-18.08,0A12.77,12.77,0,0,0,997.66,1858.51Z"/><path class="cls-11" d="M766.42,1474.83a12.78,12.78,0,0,0-10.5-21.73v25.39A12.75,12.75,0,0,0,766.42,1474.83Z"/><circle class="cls-11" cx="825.2" cy="1533.61" r="12.79"/><circle class="cls-11" cx="893.02" cy="1601.44" r="12.79"/><circle class="cls-11" cx="960.85" cy="1669.26" r="12.79"/><circle class="cls-11" cx="801.95" cy="1357.92" r="12.79"/><circle class="cls-11" cx="869.77" cy="1425.74" r="12.79"/><circle class="cls-11" cx="937.59" cy="1493.57" r="12.79"/><path class="cls-11" d="M1014.46,1552.35a12.79,12.79,0,1,0,0,18.08c.09-.09.17-.2.26-.29q0-8.69,0-17.49A3.85,3.85,0,0,0,1014.46,1552.35Z"/><circle class="cls-11" cx="774.17" cy="1177.71" r="12.79"/><path class="cls-11" d="M851,1254.57a12.79,12.79,0,1,0-18.09,0A12.79,12.79,0,0,0,851,1254.57Z"/><path class="cls-11" d="M918.86,1322.4a12.79,12.79,0,1,0-18.09,0A12.8,12.8,0,0,0,918.86,1322.4Z"/><circle class="cls-11" cx="977.64" cy="1381.18" r="12.79"/><path class="cls-11" d="M760,993a12.78,12.78,0,0,0-3.76-2.59l0,23.29A12.78,12.78,0,0,0,760,993Z"/><circle class="cls-11" cx="818.74" cy="1069.84" r="12.79"/><circle class="cls-11" cx="886.56" cy="1137.66" r="12.79"/><circle class="cls-11" cx="954.39" cy="1205.48" r="12.79"/><path class="cls-11" d="M1013.17,1264.26a12.75,12.75,0,0,0,1.76,19.55q0-10.47,0-21A12.41,12.41,0,0,0,1013.17,1264.26Z"/><path class="cls-11" d="M781.92,880.58a12.79,12.79,0,1,0,18.09,0A12.8,12.8,0,0,0,781.92,880.58Z"/><circle class="cls-11" cx="858.79" cy="957.45" r="12.79"/><circle class="cls-11" cx="926.61" cy="1025.27" r="12.79"/><circle class="cls-11" cx="994.43" cy="1093.09" r="12.79"/><path class="cls-11" d="M758.67,704.89a12.69,12.69,0,0,0-2.1,2.79q0,6.23,0,12.48a13,13,0,0,0,2.12,2.82,12.79,12.79,0,1,0,0-18.09Z"/><circle class="cls-11" cx="835.54" cy="781.76" r="12.79"/><path class="cls-11" d="M912.4,858.62a12.79,12.79,0,1,0-18.09,0A12.79,12.79,0,0,0,912.4,858.62Z"/><circle class="cls-11" cx="971.18" cy="917.4" r="12.79"/><circle class="cls-11" cx="807.76" cy="601.54" r="12.79"/><circle class="cls-11" cx="875.58" cy="669.37" r="12.79"/><circle class="cls-11" cx="943.41" cy="737.19" r="12.79"/><path class="cls-11" d="M1015.29,817.13q0-12.15,0-24.23a12.78,12.78,0,1,0,0,24.23Z"/><path class="cls-11" d="M775.46,416.81a12.79,12.79,0,1,0,18.09,0A12.8,12.8,0,0,0,775.46,416.81Z"/><path class="cls-11" d="M843.29,484.63a12.79,12.79,0,1,0,18.08,0A12.78,12.78,0,0,0,843.29,484.63Z"/><circle class="cls-11" cx="920.15" cy="561.5" r="12.79"/><circle class="cls-11" cx="987.97" cy="629.32" r="12.79"/><path class="cls-11" d="M757.37,258.4a12.78,12.78,0,0,0,.06-25.52Q757.4,245.26,757.37,258.4Z"/><circle class="cls-11" cx="824.56" cy="313.46" r="12.79"/><circle class="cls-11" cx="892.38" cy="381.28" r="12.79"/><circle class="cls-11" cx="960.2" cy="449.11" r="12.79"/><path class="cls-11" d="M1015.52,519.57v-5.3A12.79,12.79,0,0,0,1015.52,519.57Z"/><circle class="cls-11" cx="801.3" cy="137.77" r="12.79"/><circle class="cls-11" cx="869.12" cy="205.59" r="12.79"/><circle class="cls-11" cx="936.95" cy="273.41" r="12.79"/><path class="cls-11" d="M995.72,332.19a12.79,12.79,0,1,0,18.09,18.09,13.16,13.16,0,0,0,1.84-2.34q0-6.76,0-13.39a12.76,12.76,0,0,0-19.94-2.36Z"/><circle class="cls-11" cx="976.99" cy="161.02" r="12.79"/></g></svg>