<svg id="Layer_1" data-name="Layer 1" xmlns="http://www.w3.org/2000/svg" viewBox="0 0 512 512"><defs><style>.cls-1{fill:#ffa8aa;}.cls-2{fill:#841212;}.cls-3{fill:#da3138;}.cls-4{fill:#fff;}</style></defs><rect class="cls-1" width="512" height="512" rx="256"/><path class="cls-2" d="M451.82,262.18a71.37,71.37,0,0,0-7-9.82,77.74,77.74,0,0,0,4.06-6.8c4.93-9.32,7.44-20.1,7.44-32.05,0-23.77-10.06-43.95-28.32-56.81-15.53-10.94-35.72-16.48-60-16.48H234.51v14.62a93.63,93.63,0,0,0-21.18-9.1,142.56,142.56,0,0,0-40.11-5.52H51.47V235.9H64.75v40.2H51.47v95.68H173.22a142.51,142.51,0,0,0,40.11-5.51,94.54,94.54,0,0,0,21.18-9.1v14.61H368a150.23,150.23,0,0,0,29.94-2.92,91,91,0,0,0,29.66-11.44,70.11,70.11,0,0,0,23.65-23.89c6.17-10.32,9.29-22.48,9.29-36.15S457.6,271.92,451.82,262.18Z"/><path class="cls-3" d="M439.06,269.77a51.66,51.66,0,0,0-14.61-16.12,57.29,57.29,0,0,0,11.32-15c3.79-7.16,5.71-15.6,5.71-25.1,0-19.08-7.61-34.52-22-44.67-13-9.14-30.3-13.77-51.48-13.77H249.35v66h13.28V291H249.35v66H368a135.53,135.53,0,0,0,27-2.62,76.19,76.19,0,0,0,24.84-9.54,55.28,55.28,0,0,0,18.69-18.86c4.77-8,7.19-17.58,7.19-28.53S443.46,277.17,439.06,269.77Z"/><path class="cls-3" d="M261.48,210.16c-4.92-13.08-11.91-23.93-20.78-32.26A77.56,77.56,0,0,0,209.16,160a127.88,127.88,0,0,0-35.94-4.91H66.31v66H79.59V291H66.31v66H173.22A127.88,127.88,0,0,0,209.16,352,77.43,77.43,0,0,0,240.7,334.1c8.86-8.31,15.84-19.12,20.77-32.13,4.75-12.55,7.15-28,7.15-46C268.62,238.21,266.22,222.79,261.48,210.16Z"/><path class="cls-1" d="M79.24,170.48H171.3a112.31,112.31,0,0,1,31.76,4.32,62.44,62.44,0,0,1,25.56,14.49q10.84,10.19,17,26.67t6.2,40.61q0,24.35-6.2,40.72t-17,26.55a62.46,62.46,0,0,1-25.56,14.5,112.31,112.31,0,0,1-31.76,4.31H79.24V306.36H92.52V206.77H79.24Zm88.08,135.88q7.53,0,11.29-3.87T182.37,290V223.15q0-8.62-4-12.5t-11.07-3.88H154.49v99.59Z"/><path class="cls-4" d="M110.5,180.78a4.45,4.45,0,0,0-4.45,4.45v25.63a4.45,4.45,0,0,0,8.9,0V185.23A4.45,4.45,0,0,0,110.5,180.78Z"/><path class="cls-4" d="M110.5,219.71a4.44,4.44,0,0,0-4.45,4.44v.39a4.45,4.45,0,0,0,8.9,0v-.39A4.44,4.44,0,0,0,110.5,219.71Z"/><path class="cls-4" d="M82.69,309.54H96V203.07H83.48V174.3h98.35s22.79,1.86,37.08,7.56a63.92,63.92,0,0,0-15.85-7.06,112.31,112.31,0,0,0-31.76-4.32H79.24v36.3H92.52v99.58H79.24v36.3h3.18Z"/><path class="cls-1" d="M264,170.48H367.78q27.21,0,42.93,11.07t15.71,32.53q0,10.62-4,18.14a41.34,41.34,0,0,1-9.74,12.4,46.9,46.9,0,0,1-12.06,7.52,55.49,55.49,0,0,1-10.95,3.54v2.22a88.48,88.48,0,0,1,11.95,2.1,40.75,40.75,0,0,1,13.5,6,36.78,36.78,0,0,1,10.95,11.95q4.53,7.63,4.54,20t-5.09,20.91a40.37,40.37,0,0,1-13.72,13.84,61.3,61.3,0,0,1-20,7.63,119.92,119.92,0,0,1-24,2.33H264v-36.3h13.27V206.77H264Zm87.19,72.59q6.42,0,9.63-3.32c2.13-2.21,3.21-5.83,3.21-10.84v-8c0-5-1.08-8.63-3.21-10.85s-5.35-3.32-9.63-3.32H339.23v36.3Zm1.55,63.29q6.42,0,9.63-3.32t3.2-10.84v-9.74q0-7.51-3.2-10.84t-9.63-3.32h-13.5v38.06Z"/><path class="cls-4" d="M298.16,183.76a4.44,4.44,0,0,0-4.44,4.45v25.63a4.45,4.45,0,0,0,8.89,0V188.21A4.45,4.45,0,0,0,298.16,183.76Z"/><path class="cls-4" d="M298.16,222.68a4.44,4.44,0,0,0-4.44,4.45v.38a4.45,4.45,0,1,0,8.89,0v-.38A4.45,4.45,0,0,0,298.16,222.68Z"/><path class="cls-4" d="M267.72,310.39h14.71V201.44h-13V174.76H377.91s17.06.47,31,5.68c-10.3-6.61-24-10-41.18-10H264v36.29h13.27v99.59H264v36.3h3.73Z"/></svg>